<mxfile host="65bd71144e" scale="1" border="20">
    <diagram name="architecture 3d-inventory API" id="2YBvvXClWsGukQMizWep">
        <mxGraphModel dx="882" dy="897" grid="1" gridSize="10" guides="1" tooltips="1" connect="1" arrows="1" fold="1" page="0" pageScale="1" pageWidth="1100" pageHeight="850" background="#CFCFCF" math="0" shadow="0">
            <root>
                <mxCell id="0"/>
                <mxCell id="1" parent="0"/>
                <mxCell id="aM9ryv3xv72pqoxQDRHE-1" value="&lt;div&gt;MongoDB&lt;/div&gt;" style="shape=umlLifeline;perimeter=lifelinePerimeter;whiteSpace=wrap;html=1;container=0;dropTarget=0;collapsible=0;recursiveResize=0;outlineConnect=0;portConstraint=eastwest;newEdgeStyle={&quot;edgeStyle&quot;:&quot;elbowEdgeStyle&quot;,&quot;elbow&quot;:&quot;vertical&quot;,&quot;curved&quot;:0,&quot;rounded&quot;:0};labelBorderColor=none;labelBackgroundColor=none;fontColor=#000000;rounded=1;fillStyle=solid;fillColor=none;strokeColor=#000000;" parent="1" vertex="1">
                    <mxGeometry x="40" y="40" width="100" height="70" as="geometry"/>
                </mxCell>
                <mxCell id="aM9ryv3xv72pqoxQDRHE-2" value="" style="html=1;points=[];perimeter=orthogonalPerimeter;outlineConnect=0;targetShapes=umlLifeline;portConstraint=eastwest;newEdgeStyle={&quot;edgeStyle&quot;:&quot;elbowEdgeStyle&quot;,&quot;elbow&quot;:&quot;vertical&quot;,&quot;curved&quot;:0,&quot;rounded&quot;:0};labelBorderColor=none;labelBackgroundColor=none;fontColor=#000000;fillColor=none;strokeColor=#000000;" parent="aM9ryv3xv72pqoxQDRHE-1" vertex="1">
                    <mxGeometry x="45" y="70" width="10" height="180" as="geometry"/>
                </mxCell>
                <mxCell id="aM9ryv3xv72pqoxQDRHE-4" value="" style="html=1;points=[];perimeter=orthogonalPerimeter;outlineConnect=0;targetShapes=umlLifeline;portConstraint=eastwest;newEdgeStyle={&quot;edgeStyle&quot;:&quot;elbowEdgeStyle&quot;,&quot;elbow&quot;:&quot;vertical&quot;,&quot;curved&quot;:0,&quot;rounded&quot;:0};labelBorderColor=none;labelBackgroundColor=none;fontColor=#000000;fillColor=#808080;strokeColor=#000000;" parent="aM9ryv3xv72pqoxQDRHE-1" vertex="1">
                    <mxGeometry x="50" y="120" width="10" height="80" as="geometry"/>
                </mxCell>
                <mxCell id="aM9ryv3xv72pqoxQDRHE-5" value="&lt;div&gt;Mongoose&lt;/div&gt;" style="shape=umlLifeline;perimeter=lifelinePerimeter;whiteSpace=wrap;html=1;container=0;dropTarget=0;collapsible=0;recursiveResize=0;outlineConnect=0;portConstraint=eastwest;newEdgeStyle={&quot;edgeStyle&quot;:&quot;elbowEdgeStyle&quot;,&quot;elbow&quot;:&quot;vertical&quot;,&quot;curved&quot;:0,&quot;rounded&quot;:0};labelBorderColor=none;labelBackgroundColor=none;fontColor=#000000;rounded=1;fillStyle=solid;fillColor=none;strokeColor=#000000;" parent="1" vertex="1">
                    <mxGeometry x="220" y="40" width="100" height="80" as="geometry"/>
                </mxCell>
                <mxCell id="aM9ryv3xv72pqoxQDRHE-6" value="" style="html=1;points=[];perimeter=orthogonalPerimeter;outlineConnect=0;targetShapes=umlLifeline;portConstraint=eastwest;newEdgeStyle={&quot;edgeStyle&quot;:&quot;elbowEdgeStyle&quot;,&quot;elbow&quot;:&quot;vertical&quot;,&quot;curved&quot;:0,&quot;rounded&quot;:0};labelBorderColor=none;labelBackgroundColor=none;fontColor=#000000;fillColor=none;strokeColor=#000000;" parent="aM9ryv3xv72pqoxQDRHE-5" vertex="1">
                    <mxGeometry x="45" y="80" width="11" height="170" as="geometry"/>
                </mxCell>
                <mxCell id="aM9ryv3xv72pqoxQDRHE-7" value="dispatch" style="html=1;verticalAlign=bottom;endArrow=block;edgeStyle=elbowEdgeStyle;elbow=vertical;curved=0;rounded=0;labelBorderColor=none;labelBackgroundColor=none;fontColor=#000000;strokeColor=#000000;" parent="1" source="aM9ryv3xv72pqoxQDRHE-2" target="aM9ryv3xv72pqoxQDRHE-6" edge="1">
                    <mxGeometry relative="1" as="geometry">
                        <mxPoint x="195" y="130" as="sourcePoint"/>
                        <Array as="points">
                            <mxPoint x="180" y="120"/>
                        </Array>
                    </mxGeometry>
                </mxCell>
                <mxCell id="aM9ryv3xv72pqoxQDRHE-8" value="return" style="html=1;verticalAlign=bottom;endArrow=open;dashed=1;endSize=8;edgeStyle=elbowEdgeStyle;elbow=vertical;curved=0;rounded=0;labelBorderColor=none;labelBackgroundColor=none;fontColor=#000000;strokeColor=#000000;" parent="1" source="aM9ryv3xv72pqoxQDRHE-6" target="aM9ryv3xv72pqoxQDRHE-2" edge="1">
                    <mxGeometry relative="1" as="geometry">
                        <mxPoint x="195" y="205" as="targetPoint"/>
                        <Array as="points">
                            <mxPoint x="190" y="280"/>
                        </Array>
                    </mxGeometry>
                </mxCell>
                <mxCell id="aM9ryv3xv72pqoxQDRHE-9" value="callback" style="html=1;verticalAlign=bottom;endArrow=block;edgeStyle=elbowEdgeStyle;elbow=vertical;curved=0;rounded=0;labelBorderColor=none;labelBackgroundColor=none;fontColor=#000000;strokeColor=#000000;" parent="1" source="aM9ryv3xv72pqoxQDRHE-6" target="aM9ryv3xv72pqoxQDRHE-4" edge="1">
                    <mxGeometry relative="1" as="geometry">
                        <mxPoint x="175" y="160" as="sourcePoint"/>
                        <Array as="points">
                            <mxPoint x="190" y="160"/>
                        </Array>
                    </mxGeometry>
                </mxCell>
                <mxCell id="aM9ryv3xv72pqoxQDRHE-10" value="return" style="html=1;verticalAlign=bottom;endArrow=open;dashed=1;endSize=8;edgeStyle=elbowEdgeStyle;elbow=vertical;curved=0;rounded=0;labelBorderColor=none;labelBackgroundColor=none;fontColor=#000000;strokeColor=#000000;" parent="1" source="aM9ryv3xv72pqoxQDRHE-4" target="aM9ryv3xv72pqoxQDRHE-6" edge="1">
                    <mxGeometry relative="1" as="geometry">
                        <mxPoint x="175" y="235" as="targetPoint"/>
                        <Array as="points">
                            <mxPoint x="180" y="230"/>
                        </Array>
                    </mxGeometry>
                </mxCell>
                <mxCell id="9coqSmU1fN5mkPP7T_2O-2" value="API Express" style="swimlane;whiteSpace=wrap;html=1;rounded=1;shadow=0;labelBorderColor=none;labelBackgroundColor=none;fontColor=#000000;separatorColor=#000000;fillColor=none;strokeColor=#030303;" parent="1" vertex="1">
                    <mxGeometry x="360" y="10" width="190" height="290" as="geometry"/>
                </mxCell>
                <mxCell id="9coqSmU1fN5mkPP7T_2O-9" value="Authorization" style="html=1;points=[];perimeter=orthogonalPerimeter;outlineConnect=0;targetShapes=umlLifeline;portConstraint=eastwest;newEdgeStyle={&quot;edgeStyle&quot;:&quot;elbowEdgeStyle&quot;,&quot;elbow&quot;:&quot;vertical&quot;,&quot;curved&quot;:0,&quot;rounded&quot;:0};labelBorderColor=none;labelBackgroundColor=none;fontColor=#000000;fillColor=none;strokeColor=#000000;" parent="9coqSmU1fN5mkPP7T_2O-2" vertex="1">
                    <mxGeometry x="10" y="250" width="170" height="30" as="geometry"/>
                </mxCell>
                <mxCell id="9coqSmU1fN5mkPP7T_2O-3" value="Express" style="shape=umlLifeline;perimeter=lifelinePerimeter;whiteSpace=wrap;html=1;container=0;dropTarget=0;collapsible=0;recursiveResize=0;outlineConnect=0;portConstraint=eastwest;newEdgeStyle={&quot;edgeStyle&quot;:&quot;elbowEdgeStyle&quot;,&quot;elbow&quot;:&quot;vertical&quot;,&quot;curved&quot;:0,&quot;rounded&quot;:0};labelBorderColor=none;labelBackgroundColor=none;fontColor=#000000;strokeColor=#000000;fillColor=none;" parent="9coqSmU1fN5mkPP7T_2O-2" vertex="1">
                    <mxGeometry x="10" y="50" width="170" height="140" as="geometry"/>
                </mxCell>
                <mxCell id="9coqSmU1fN5mkPP7T_2O-6" value="CROS" style="html=1;points=[];perimeter=orthogonalPerimeter;outlineConnect=0;targetShapes=umlLifeline;portConstraint=eastwest;newEdgeStyle={&quot;edgeStyle&quot;:&quot;elbowEdgeStyle&quot;,&quot;elbow&quot;:&quot;vertical&quot;,&quot;curved&quot;:0,&quot;rounded&quot;:0};labelBorderColor=none;labelBackgroundColor=none;fontColor=#000000;fillStyle=solid;strokeColor=#000000;fillColor=none;" parent="9coqSmU1fN5mkPP7T_2O-3" vertex="1">
                    <mxGeometry y="140" width="170" height="30" as="geometry"/>
                </mxCell>
                <mxCell id="9coqSmU1fN5mkPP7T_2O-8" value="&lt;div&gt;JWT&lt;/div&gt;" style="html=1;points=[];perimeter=orthogonalPerimeter;outlineConnect=0;targetShapes=umlLifeline;portConstraint=eastwest;newEdgeStyle={&quot;edgeStyle&quot;:&quot;elbowEdgeStyle&quot;,&quot;elbow&quot;:&quot;vertical&quot;,&quot;curved&quot;:0,&quot;rounded&quot;:0};labelBorderColor=none;labelBackgroundColor=none;fontColor=#000000;fillColor=none;strokeColor=#000000;" parent="9coqSmU1fN5mkPP7T_2O-2" vertex="1">
                    <mxGeometry x="10" y="220" width="170" height="30" as="geometry"/>
                </mxCell>
                <mxCell id="9coqSmU1fN5mkPP7T_2O-10" value="" style="endArrow=open;html=1;endFill=0;shadow=0;startArrow=none;startFill=0;strokeColor=#000000;strokeWidth=1;rounded=0;labelBorderColor=none;labelBackgroundColor=none;fontColor=#000000;" parent="1" source="aM9ryv3xv72pqoxQDRHE-6" target="9coqSmU1fN5mkPP7T_2O-3" edge="1">
                    <mxGeometry width="50" height="50" relative="1" as="geometry">
                        <mxPoint x="290" y="201.66666666666674" as="sourcePoint"/>
                        <mxPoint x="489.5" y="151.6666666666667" as="targetPoint"/>
                        <Array as="points">
                            <mxPoint x="400.50000000000045" y="181.66666666666674"/>
                        </Array>
                    </mxGeometry>
                </mxCell>
                <mxCell id="9coqSmU1fN5mkPP7T_2O-17" value="GraphQL" style="edgeLabel;html=1;align=center;verticalAlign=middle;resizable=0;points=[];labelBorderColor=none;labelBackgroundColor=none;fontColor=#000000;" parent="9coqSmU1fN5mkPP7T_2O-10" vertex="1" connectable="0">
                    <mxGeometry x="-0.6066" y="2" relative="1" as="geometry">
                        <mxPoint x="52" y="-8" as="offset"/>
                    </mxGeometry>
                </mxCell>
                <mxCell id="9coqSmU1fN5mkPP7T_2O-18" value="Actor" style="shape=umlActor;verticalLabelPosition=bottom;verticalAlign=top;html=1;outlineConnect=0;labelBorderColor=none;labelBackgroundColor=none;fontColor=#000000;strokeColor=#000000;fillColor=none;" parent="1" vertex="1">
                    <mxGeometry x="850" y="141.67000000000002" width="30" height="60" as="geometry"/>
                </mxCell>
                <mxCell id="18" value="" style="endArrow=none;html=1;endFill=0;curved=1;shadow=0;startArrow=open;startFill=0;strokeColor=#000000;strokeWidth=1;labelBorderColor=none;labelBackgroundColor=none;fontColor=#000000;" parent="1" source="aM9ryv3xv72pqoxQDRHE-6" target="9coqSmU1fN5mkPP7T_2O-3" edge="1">
                    <mxGeometry width="50" height="50" relative="1" as="geometry">
                        <mxPoint x="280" y="180" as="sourcePoint"/>
                        <mxPoint x="448.5" y="170" as="targetPoint"/>
                        <Array as="points">
                            <mxPoint x="400" y="150"/>
                        </Array>
                    </mxGeometry>
                </mxCell>
                <mxCell id="19" value="GraphQL" style="edgeLabel;html=1;align=center;verticalAlign=middle;resizable=0;points=[];labelBorderColor=none;labelBackgroundColor=none;fontColor=#000000;" parent="18" vertex="1" connectable="0">
                    <mxGeometry x="-0.6066" y="2" relative="1" as="geometry">
                        <mxPoint x="52" y="-8" as="offset"/>
                    </mxGeometry>
                </mxCell>
                <mxCell id="28" value="" style="endArrow=none;html=1;endFill=0;curved=1;shadow=0;startArrow=open;startFill=0;strokeColor=#000000;strokeWidth=1;labelBorderColor=none;labelBackgroundColor=none;fontColor=#000000;" parent="1" source="9coqSmU1fN5mkPP7T_2O-3" edge="1">
                    <mxGeometry width="50" height="50" relative="1" as="geometry">
                        <mxPoint x="460" y="130" as="sourcePoint"/>
                        <mxPoint x="694.5" y="130" as="targetPoint"/>
                        <Array as="points">
                            <mxPoint x="584" y="130"/>
                        </Array>
                    </mxGeometry>
                </mxCell>
                <mxCell id="29" value="REST" style="edgeLabel;html=1;align=center;verticalAlign=middle;resizable=0;points=[];labelBorderColor=none;labelBackgroundColor=none;fontColor=#000000;" parent="28" vertex="1" connectable="0">
                    <mxGeometry x="-0.6066" y="2" relative="1" as="geometry">
                        <mxPoint x="52" y="-8" as="offset"/>
                    </mxGeometry>
                </mxCell>
                <mxCell id="30" value="" style="endArrow=open;html=1;endFill=0;shadow=0;startArrow=none;startFill=0;strokeColor=#000000;strokeWidth=1;rounded=0;labelBorderColor=none;labelBackgroundColor=none;fontColor=#000000;" parent="1" source="9coqSmU1fN5mkPP7T_2O-3" edge="1">
                    <mxGeometry width="50" height="50" relative="1" as="geometry">
                        <mxPoint x="460" y="169.99666666666684" as="sourcePoint"/>
                        <mxPoint x="694.5" y="190" as="targetPoint"/>
                        <Array as="points">
                            <mxPoint x="590" y="190"/>
                        </Array>
                    </mxGeometry>
                </mxCell>
                <mxCell id="31" value="REST" style="edgeLabel;html=1;align=center;verticalAlign=middle;resizable=0;points=[];labelBorderColor=none;labelBackgroundColor=none;fontColor=#000000;" parent="30" vertex="1" connectable="0">
                    <mxGeometry x="-0.6066" y="2" relative="1" as="geometry">
                        <mxPoint x="52" y="-8" as="offset"/>
                    </mxGeometry>
                </mxCell>
                <mxCell id="32" value="" style="endArrow=classic;startArrow=classic;html=1;rounded=0;dashed=1;strokeWidth=1;labelBorderColor=none;labelBackgroundColor=none;fontColor=#000000;strokeColor=#000000;" parent="1" edge="1">
                    <mxGeometry width="50" height="50" relative="1" as="geometry">
                        <mxPoint x="790" y="172" as="sourcePoint"/>
                        <mxPoint x="860" y="171.67000000000002" as="targetPoint"/>
                    </mxGeometry>
                </mxCell>
                <mxCell id="33" value="Angular Express" style="swimlane;whiteSpace=wrap;html=1;rounded=1;shadow=0;labelBorderColor=none;labelBackgroundColor=none;fontColor=#000000;separatorColor=#000000;fillColor=none;strokeColor=#030303;" vertex="1" parent="1">
                    <mxGeometry x="600" y="10" width="190" height="290" as="geometry"/>
                </mxCell>
                <mxCell id="34" value="Authorization" style="html=1;points=[];perimeter=orthogonalPerimeter;outlineConnect=0;targetShapes=umlLifeline;portConstraint=eastwest;newEdgeStyle={&quot;edgeStyle&quot;:&quot;elbowEdgeStyle&quot;,&quot;elbow&quot;:&quot;vertical&quot;,&quot;curved&quot;:0,&quot;rounded&quot;:0};labelBorderColor=none;labelBackgroundColor=none;fontColor=#000000;fillColor=none;strokeColor=#000000;" vertex="1" parent="33">
                    <mxGeometry x="10" y="250" width="170" height="30" as="geometry"/>
                </mxCell>
                <mxCell id="35" value="Express" style="shape=umlLifeline;perimeter=lifelinePerimeter;whiteSpace=wrap;html=1;container=0;dropTarget=0;collapsible=0;recursiveResize=0;outlineConnect=0;portConstraint=eastwest;newEdgeStyle={&quot;edgeStyle&quot;:&quot;elbowEdgeStyle&quot;,&quot;elbow&quot;:&quot;vertical&quot;,&quot;curved&quot;:0,&quot;rounded&quot;:0};labelBorderColor=none;labelBackgroundColor=none;fontColor=#000000;strokeColor=#000000;fillColor=none;" vertex="1" parent="33">
                    <mxGeometry x="10" y="50" width="170" height="140" as="geometry"/>
                </mxCell>
                <mxCell id="36" value="CROS" style="html=1;points=[];perimeter=orthogonalPerimeter;outlineConnect=0;targetShapes=umlLifeline;portConstraint=eastwest;newEdgeStyle={&quot;edgeStyle&quot;:&quot;elbowEdgeStyle&quot;,&quot;elbow&quot;:&quot;vertical&quot;,&quot;curved&quot;:0,&quot;rounded&quot;:0};labelBorderColor=none;labelBackgroundColor=none;fontColor=#000000;fillStyle=solid;strokeColor=#000000;fillColor=none;" vertex="1" parent="35">
                    <mxGeometry y="140" width="170" height="30" as="geometry"/>
                </mxCell>
                <mxCell id="37" value="&lt;div&gt;JWT&lt;/div&gt;" style="html=1;points=[];perimeter=orthogonalPerimeter;outlineConnect=0;targetShapes=umlLifeline;portConstraint=eastwest;newEdgeStyle={&quot;edgeStyle&quot;:&quot;elbowEdgeStyle&quot;,&quot;elbow&quot;:&quot;vertical&quot;,&quot;curved&quot;:0,&quot;rounded&quot;:0};labelBorderColor=none;labelBackgroundColor=none;fontColor=#000000;fillColor=none;strokeColor=#000000;" vertex="1" parent="33">
                    <mxGeometry x="10" y="220" width="170" height="30" as="geometry"/>
                </mxCell>
            </root>
        </mxGraphModel>
    </diagram>
</mxfile>
